<?xml version="1.0" encoding="UTF-8" standalone="no"?>
<svg
   version="1.1"
   viewBox="0.00 0.00 1249.00 222.00"
   id="svg12"
   sodipodi:docname="oss(1).svg"
   inkscape:export-filename="oss-logo.svg"
   inkscape:export-xdpi="96"
   inkscape:export-ydpi="96"
   inkscape:version="1.3 (0e150ed6c4, 2023-07-21)"
   xmlns:inkscape="http://www.inkscape.org/namespaces/inkscape"
   xmlns:sodipodi="http://sodipodi.sourceforge.net/DTD/sodipodi-0.dtd"
   xmlns="http://www.w3.org/2000/svg"
   xmlns:svg="http://www.w3.org/2000/svg">
  <defs
     id="defs12" />
  <sodipodi:namedview
     id="namedview12"
     pagecolor="#ffffff"
     bordercolor="#000000"
     borderopacity="0.25"
     inkscape:showpageshadow="2"
     inkscape:pageopacity="0.0"
     inkscape:pagecheckerboard="0"
     inkscape:deskcolor="#d1d1d1"
     inkscape:export-bgcolor="#ffffffff"
     inkscape:zoom="0.54802191"
     inkscape:cx="562.02133"
     inkscape:cy="322.06742"
     inkscape:window-width="896"
     inkscape:window-height="1057"
     inkscape:window-x="384"
     inkscape:window-y="23"
     inkscape:window-maximized="1"
     inkscape:current-layer="svg12" />
  <g
     id="g12"
     style="fill:#428bca;stroke:none;fill-opacity:1">
    <path
       fill="#000000"
       d="   M 166.36 24.88   C 206.08 36.20 245.69 47.91 285.25 59.74   C 290.45 61.29 294.33 62.06 293.99 68.25   Q 291.88 107.49 289.05 146.69   C 288.36 156.17 280.17 158.76 271.51 162.52   Q 224.71 182.90 177.98 203.42   Q 163.82 209.64 160.30 210.40   C 148.39 212.97 138.40 208.49 127.22 203.49   Q 76.23 180.72 25.19 158.06   Q 16.57 154.23 15.88 144.69   Q 13.58 113.23 11.69 81.75   C 11.26 74.68 9.66 64.85 12.58 62.58   Q 15.85 60.03 18.93 59.16   Q 78.01 42.33 137.06 25.38   C 147.50 22.39 156.29 22.01 166.36 24.88   Z   M 274.17 65.44   C 236.96 53.74 199.55 41.90 162.01 31.50   C 154.45 29.41 148.67 29.79 140.65 32.16   Q 94.17 45.94 47.62 59.52   C 42.75 60.94 35.57 63.37 29.34 64.85   Q 28.20 65.12 29.24 65.65   C 30.73 66.42 33.33 66.74 34.52 67.10   Q 83.98 82.05 133.43 97.06   C 144.88 100.54 153.38 102.49 163.69 99.45   Q 219.19 83.08 274.16 66.77   A 0.70 0.69 45.5 0 0 274.17 65.44   Z"
       id="path1"
       style="fill:#428bca;stroke:none;fill-opacity:1" />
    <path
       fill="#000000"
       d="   M 329.73 155.07   A 18.87 18.87 0.0 0 1 310.83 136.23   L 310.74 83.20   A 22.24 22.22 89.9 0 1 332.92 60.92   L 381.58 60.84   A 22.24 22.22 89.9 0 1 403.84 83.04   L 403.93 136.07   A 18.87 18.87 0.0 0 1 385.09 154.97   L 329.73 155.07   Z   M 380.99 83.61   A 0.61 0.61 0.0 0 0 380.38 83.00   L 333.60 83.00   A 0.61 0.61 0.0 0 0 332.99 83.61   L 332.99 132.39   A 0.61 0.61 0.0 0 0 333.60 133.00   L 380.38 133.00   A 0.61 0.61 0.0 0 0 380.99 132.39   L 380.99 83.61   Z"
       id="path2"
       style="fill:#428bca;stroke:none;fill-opacity:1" />
    <path
       fill="#000000"
       d="   M 484.03 131.48   L 483.98 119.53   Q 483.98 119.00 483.46 119.00   Q 461.30 119.01 439.26 118.94   Q 422.96 118.89 419.90 102.84   Q 417.65 91.03 419.70 79.39   C 422.09 65.80 429.97 61.04 443.35 61.02   Q 471.40 60.98 499.53 61.01   A 0.47 0.47 0.0 0 1 500.00 61.48   L 500.00 81.50   Q 500.00 83.00 498.50 83.00   L 442.41 83.00   A 0.41 0.40 -0.0 0 0 442.00 83.40   L 442.00 96.46   Q 442.00 96.99 442.53 96.99   Q 461.09 97.02 479.59 97.01   Q 489.50 97.00 493.63 98.50   C 506.94 103.32 505.86 116.38 506.08 128.46   C 506.34 143.11 502.43 154.78 484.93 154.93   Q 457.22 155.17 429.41 154.82   A 0.86 0.86 0.0 0 1 428.69 153.50   C 432.81 146.86 434.34 139.88 428.23 133.74   A 0.43 0.43 0.0 0 1 428.53 133.01   C 434.18 132.99 439.71 133.00 445.32 132.73   Q 464.41 131.81 483.52 131.99   Q 484.03 131.99 484.03 131.48   Z"
       id="path3"
       style="fill:#428bca;stroke:none;fill-opacity:1" />
    <path
       fill="#000000"
       d="   M 515.71 61.00   L 532.22 61.00   A 0.69 0.69 0.0 0 1 532.87 61.94   L 516.34 104.82   A 0.69 0.69 0.0 0 1 515.01 104.57   L 515.02 61.69   A 0.69 0.69 0.0 0 1 515.71 61.00   Z"
       id="path4"
       style="fill:#428bca;stroke:none;fill-opacity:1" />
    <path
       fill="#000000"
       d="   M 560.17 83.69   L 557.94 96.23   A 0.67 0.66 5.2 0 0 558.59 97.00   Q 579.23 97.01 600.15 97.00   C 611.26 96.99 618.70 102.04 618.06 114.50   Q 617.33 128.68 612.46 140.43   C 605.65 156.86 591.18 154.63 576.68 154.82   Q 554.58 155.12 532.40 154.97   A 0.32 0.32 0.0 0 1 532.12 154.50   C 535.74 147.61 538.28 142.53 533.31 135.38   Q 532.41 134.08 532.07 132.98   A 0.76 0.76 0.0 0 1 532.80 132.00   L 592.15 132.00   Q 592.78 132.00 592.90 131.38   L 594.97 120.19   A 1.01 1.01 0.0 0 0 593.98 119.00   Q 577.01 119.00 560.10 119.00   Q 547.43 119.00 543.61 117.44   C 529.74 111.79 535.48 91.30 539.09 78.82   C 542.65 66.51 552.75 60.99 564.97 61.00   Q 592.93 61.00 620.89 61.00   C 621.33 61.00 621.55 61.16 621.99 61.24   Q 623.28 61.48 623.01 62.76   L 619.06 81.99   A 1.27 1.27 0.0 0 1 617.82 83.00   L 561.00 83.00   A 0.85 0.84 -84.6 0 0 560.17 83.69   Z"
       id="path5"
       style="fill:#428bca;stroke:none;fill-opacity:1" />
    <path
       fill="#000000"
       d="   M 668.76 102.72   L 699.07 61.57   A 1.44 1.44 0.0 0 1 700.23 60.98   C 702.27 60.98 723.42 60.81 723.69 61.31   A 1.55 1.15 54.2 0 1 723.67 62.81   Q 700.65 91.76 677.98 119.98   C 676.84 121.39 675.79 123.50 675.39 125.49   Q 672.59 139.57 669.76 153.70   A 1.70 1.69 5.9 0 1 668.07 155.07   L 648.11 154.81   A 0.83 0.83 0.0 0 1 647.30 153.81   Q 650.15 139.10 653.31 124.26   C 653.92 121.43 653.09 119.92 651.75 116.67   Q 640.83 90.05 629.82 63.15   A 1.56 1.56 0.0 0 1 631.27 61.00   L 652.51 61.00   A 2.12 2.11 80.5 0 1 654.51 62.43   Q 660.81 80.76 667.20 99.00   C 667.52 99.91 667.59 101.54 668.03 102.63   Q 668.31 103.32 668.76 102.72   Z"
       id="path6"
       style="fill:#428bca;stroke:none;fill-opacity:1" />
    <path
       fill="#000000"
       d="   M 776.21 119.13   Q 759.16 118.82 734.99 119.07   C 725.54 119.17 716.25 114.25 716.77 103.49   Q 717.29 92.77 721.16 79.65   Q 725.07 66.37 736.48 62.55   Q 741.04 61.02 755.16 61.00   Q 779.02 60.98 803.31 61.03   A 1.63 1.63 0.0 0 1 804.91 62.97   L 801.28 82.03   A 1.18 1.17 -84.7 0 1 800.13 82.99   Q 773.06 83.01 746.00 82.99   Q 745.33 82.99 743.21 83.31   Q 742.65 83.39 742.54 83.94   L 740.01 96.29   A 0.59 0.59 0.0 0 0 740.59 97.00   Q 762.07 96.99 783.74 97.01   C 798.61 97.02 801.57 107.58 799.84 120.17   C 798.44 130.40 795.39 144.85 786.78 150.59   C 778.73 155.95 769.60 154.72 760.39 154.83   Q 734.58 155.13 708.69 154.96   A 1.07 1.06 5.8 0 1 707.65 153.69   L 711.55 133.54   Q 711.85 132.00 713.42 132.00   L 774.25 132.00   Q 774.69 132.00 774.82 131.58   Q 776.57 125.80 776.82 119.78   Q 776.84 119.14 776.21 119.13   Z"
       id="path7"
       style="fill:#428bca;stroke:none;fill-opacity:1" />
    <path
       fill="#000000"
       d="   M 812.40 61.00   L 903.15 61.00   A 0.99 0.99 0.0 0 1 904.12 62.16   L 900.57 82.13   A 0.99 0.99 0.0 0 1 899.60 82.94   L 865.72 83.03   A 0.99 0.99 0.0 0 0 864.75 83.82   L 850.67 154.24   A 0.99 0.99 0.0 0 1 849.69 155.03   L 829.27 154.91   A 0.99 0.99 0.0 0 1 828.31 153.72   L 842.25 84.18   A 0.99 0.99 0.0 0 0 841.28 83.00   L 808.62 83.00   A 0.99 0.99 0.0 0 1 807.65 81.83   L 811.43 61.81   A 0.99 0.99 0.0 0 1 812.40 61.00   Z"
       id="path8"
       style="fill:#428bca;stroke:none;fill-opacity:1" />
    <path
       fill="#000000"
       d="   M 909.14 82.93   C 911.70 70.59 918.84 61.36 932.27 61.22   Q 958.98 60.94 985.76 61.02   C 995.80 61.05 1003.10 67.83 1002.23 78.27   Q 1001.63 85.56 1000.05 92.69   C 995.42 113.45 989.00 118.94 967.51 118.97   Q 946.13 119.01 924.76 119.00   Q 924.16 119.00 924.04 119.60   L 921.86 131.23   Q 921.71 132.00 922.50 132.00   L 986.04 132.00   A 1.15 1.15 0.0 0 1 987.17 133.37   L 983.23 154.02   A 1.14 1.14 0.0 0 1 982.12 154.95   Q 948.35 155.19 915.75 154.72   C 901.47 154.51 896.91 145.41 899.34 132.52   Q 904.00 107.68 909.14 82.93   Z   M 931.09 83.72   L 928.89 95.70   A 1.10 1.10 0.0 0 0 929.97 97.00   L 976.04 97.00   Q 976.63 97.00 976.81 96.44   Q 978.90 90.15 978.78 83.52   A 0.53 0.53 0.0 0 0 978.25 83.00   L 931.95 83.00   A 0.88 0.87 -84.9 0 0 931.09 83.72   Z"
       id="path9"
       style="fill:#428bca;stroke:none;fill-opacity:1" />
    <path
       fill="#000000"
       d="   M 1018.18 61.50   Q 1018.28 61.00 1018.79 61.00   Q 1072.52 61.00 1126.50 61.00   C 1140.18 61.00 1144.14 71.09 1141.95 83.06   Q 1135.44 118.68 1128.13 153.44   Q 1127.80 155.01 1126.20 155.00   L 1106.38 154.94   A 0.87 0.87 0.0 0 1 1105.53 153.90   L 1119.20 85.21   A 1.82 1.81 -84.2 0 0 1117.43 83.04   L 1090.35 82.98   A 1.20 1.20 0.0 0 0 1089.17 83.95   L 1075.06 154.21   A 0.96 0.96 0.0 0 1 1074.12 154.97   L 1053.58 154.88   A 0.88 0.88 0.0 0 1 1052.73 153.83   L 1066.74 83.51   A 0.38 0.38 0.0 0 0 1066.37 83.06   Q 1053.34 82.91 1040.26 82.72   Q 1038.75 82.70 1036.79 83.19   Q 1036.26 83.32 1036.16 83.86   Q 1029.16 118.79 1022.17 153.69   C 1021.74 155.84 1003.06 154.97 1000.46 154.94   A 0.83 0.82 6.0 0 1 999.65 153.95   L 1018.18 61.50   Z"
       id="path10"
       style="fill:#428bca;stroke:none;fill-opacity:1" />
    <path
       fill="#000000"
       d="   M 1154.47 82.00   C 1156.52 73.01 1162.30 65.58 1170.83 62.47   Q 1174.79 61.04 1183.48 61.02   Q 1210.79 60.97 1238.10 61.01   A 1.06 1.06 0.0 0 1 1239.14 62.26   L 1235.59 82.06   A 1.15 1.14 5.1 0 1 1234.46 83.00   L 1178.02 83.00   A 1.32 1.32 0.0 0 0 1176.73 84.03   L 1173.93 96.46   A 0.42 0.42 0.0 0 0 1174.33 96.98   Q 1194.49 97.06 1214.67 96.96   C 1227.00 96.91 1235.64 101.13 1234.23 115.77   Q 1233.07 127.75 1229.61 138.48   C 1225.51 151.21 1214.91 155.24 1202.69 155.01   C 1182.56 154.63 1162.45 155.18 1142.37 154.82   A 0.75 0.75 0.0 0 1 1141.65 153.92   L 1145.99 132.59   A 0.74 0.73 -84.2 0 1 1146.71 132.00   L 1207.63 132.00   A 2.00 1.99 4.8 0 0 1209.60 130.34   L 1211.45 119.57   Q 1211.54 119.05 1211.01 119.05   Q 1189.85 118.96 1168.75 118.84   C 1144.58 118.70 1151.10 96.82 1154.47 82.00   Z"
       id="path11"
       style="fill:#428bca;stroke:none;fill-opacity:1" />
    <circle
       fill="#000000"
       cx="417.88"
       cy="143.82"
       r="11.08"
       id="circle11"
       style="fill:#428bca;stroke:none;fill-opacity:1" />
    <circle
       fill="#000000"
       cx="521.72"
       cy="143.79"
       r="11.10"
       id="circle12"
       style="fill:#428bca;stroke:none;fill-opacity:1" />
  </g>
</svg>
